<?xml version="1.0" encoding="UTF-8"?>
<!DOCTYPE svg PUBLIC "-//W3C//DTD SVG 1.1//EN" "http://www.w3.org/Graphics/SVG/1.1/DTD/svg11.dtd">
<svg xmlns="http://www.w3.org/2000/svg" version="1.1" width="192px" height="192px" style="shape-rendering:geometricPrecision; text-rendering:geometricPrecision; image-rendering:optimizeQuality; fill-rule:evenodd; clip-rule:evenodd" xmlns:xlink="http://www.w3.org/1999/xlink">
<g><path style="opacity:0.529" fill="#f7f189" d="M 123.5,9.5 C 123.167,9.5 122.833,9.5 122.5,9.5C 121.295,8.31434 119.961,8.31434 118.5,9.5C 118.787,7.87929 119.787,6.87929 121.5,6.5C 122.919,7.00475 123.585,8.00475 123.5,9.5 Z"/></g>
<g><path style="opacity:1" fill="#f3e91c" d="M 122.5,9.5 C 122.737,10.791 122.404,11.791 121.5,12.5C 120.1,11.8999 119.1,10.8999 118.5,9.5C 119.961,8.31434 121.295,8.31434 122.5,9.5 Z"/></g>
<g><path style="opacity:0.78" fill="#f6ee68" d="M 118.5,9.5 C 119.1,10.8999 120.1,11.8999 121.5,12.5C 121.5,13.1667 121.5,13.8333 121.5,14.5C 120.778,14.0825 120.278,13.4158 120,12.5C 119.148,13.5707 118.315,14.5707 117.5,15.5C 117.5,14.5 117.5,13.5 117.5,12.5C 117.5,11.8333 117.5,11.1667 117.5,10.5C 117.5,9.83333 117.833,9.5 118.5,9.5 Z"/></g>
<g><path style="opacity:0.847" fill="#f6f279" d="M 123.5,9.5 C 124.492,11.4561 125.492,13.4561 126.5,15.5C 126.167,15.5 125.833,15.5 125.5,15.5C 123.919,13.8583 123.253,11.8583 123.5,9.5 Z"/></g>
<g><path style="opacity:0.788" fill="#f6f28c" d="M 39.5,14.5 C 37.5,14.5 35.5,14.5 33.5,14.5C 33.7678,16.099 33.4345,17.4324 32.5,18.5C 32.1857,12.3371 34.5191,11.0038 39.5,14.5 Z"/></g>
<g><path style="opacity:1" fill="#f3e921" d="M 122.5,9.5 C 122.833,9.5 123.167,9.5 123.5,9.5C 123.253,11.8583 123.919,13.8583 125.5,15.5C 125.715,17.1788 125.048,18.1788 123.5,18.5C 123.771,16.6203 123.104,15.287 121.5,14.5C 121.5,13.8333 121.5,13.1667 121.5,12.5C 122.404,11.791 122.737,10.791 122.5,9.5 Z"/></g>
<g><path style="opacity:0.98" fill="#f6f072" d="M 39.5,14.5 C 39.5,14.8333 39.5,15.1667 39.5,15.5C 38.7611,15.369 38.0944,15.5357 37.5,16C 38.3805,16.7083 39.0472,17.5416 39.5,18.5C 37.9826,18.4894 36.8159,17.8228 36,16.5C 35.3392,22.005 34.5059,27.3383 33.5,32.5C 33.8168,28.2984 33.4834,24.2984 32.5,20.5C 32.5,19.8333 32.5,19.1667 32.5,18.5C 33.4345,17.4324 33.7678,16.099 33.5,14.5C 35.5,14.5 37.5,14.5 39.5,14.5 Z"/></g>
<g><path style="opacity:0.839" fill="#f6f177" d="M 39.5,14.5 C 42.1092,15.4431 44.1092,17.1097 45.5,19.5C 45.1667,19.5 44.8333,19.5 44.5,19.5C 42.8089,18.1363 41.1423,16.803 39.5,15.5C 39.5,15.1667 39.5,14.8333 39.5,14.5 Z"/></g>
<g><path style="opacity:0.529" fill="#f8f17e" d="M 117.5,10.5 C 117.5,11.1667 117.5,11.8333 117.5,12.5C 115.167,14.1667 113.167,16.1667 111.5,18.5C 110.833,18.5 110.167,18.5 109.5,18.5C 111.833,15.5 114.5,12.8333 117.5,10.5 Z"/></g>
<g><path style="opacity:0.808" fill="#f3ec54" d="M 117.5,12.5 C 117.5,13.5 117.5,14.5 117.5,15.5C 115.525,17.137 113.525,18.8036 111.5,20.5C 111.5,19.8333 111.5,19.1667 111.5,18.5C 113.167,16.1667 115.167,14.1667 117.5,12.5 Z"/></g>
<g><path style="opacity:0.18" fill="#f9f48f" d="M 121.5,14.5 C 123.104,15.287 123.771,16.6203 123.5,18.5C 122.326,17.4863 121.66,16.153 121.5,14.5 Z"/></g>
<g><path style="opacity:0.718" fill="#f6f075" d="M 39.5,18.5 C 41.0618,18.7329 42.3951,19.3995 43.5,20.5C 44.5,21.8333 45.5,23.1667 46.5,24.5C 43.5726,23.2427 41.2393,21.2427 39.5,18.5 Z"/></g>
<g><path style="opacity:1" fill="#f7ee5c" d="M 125.5,15.5 C 125.833,15.5 126.167,15.5 126.5,15.5C 126.366,17.2915 126.699,18.9582 127.5,20.5C 126.549,21.9187 126.216,23.5853 126.5,25.5C 124.935,23.4907 123.935,21.1573 123.5,18.5C 125.048,18.1788 125.715,17.1788 125.5,15.5 Z"/></g>
<g><path style="opacity:0.682" fill="#f6f27d" d="M 126.5,15.5 C 127.537,16.9303 128.204,18.597 128.5,20.5C 128.167,20.5 127.833,20.5 127.5,20.5C 126.699,18.9582 126.366,17.2915 126.5,15.5 Z"/></g>
<g><path style="opacity:0.992" fill="#f1e91b" d="M 39.5,15.5 C 41.1423,16.803 42.8089,18.1363 44.5,19.5C 44.5,20.1667 44.1667,20.5 43.5,20.5C 42.3951,19.3995 41.0618,18.7329 39.5,18.5C 39.0472,17.5416 38.3805,16.7083 37.5,16C 38.0944,15.5357 38.7611,15.369 39.5,15.5 Z"/></g>
<g><path style="opacity:0.176" fill="#fbf7a4" d="M 109.5,18.5 C 109.167,19.5 108.5,20.1667 107.5,20.5C 107.5,19.1667 108.167,18.5 109.5,18.5 Z"/></g>
<g><path style="opacity:0.988" fill="#f2eb4f" d="M 109.5,18.5 C 110.167,18.5 110.833,18.5 111.5,18.5C 111.5,19.1667 111.5,19.8333 111.5,20.5C 111.167,21.5 110.5,22.1667 109.5,22.5C 108.833,22.5 108.167,22.5 107.5,22.5C 107.5,21.8333 107.5,21.1667 107.5,20.5C 108.5,20.1667 109.167,19.5 109.5,18.5 Z"/></g>
<g><path style="opacity:0.102" fill="#f6f49a" d="M 136.5,18.5 C 134.821,18.2852 133.821,18.9519 133.5,20.5C 132.596,19.791 132.263,18.791 132.5,17.5C 134.099,17.2322 135.432,17.5655 136.5,18.5 Z"/></g>
<g><path style="opacity:0.99" fill="#f2e826" d="M 44.5,19.5 C 44.8333,19.5 45.1667,19.5 45.5,19.5C 46.0347,21.4456 47.368,22.4456 49.5,22.5C 49.6495,23.552 49.4828,24.552 49,25.5C 48.3292,24.7476 47.4959,24.4142 46.5,24.5C 45.5,23.1667 44.5,21.8333 43.5,20.5C 44.1667,20.5 44.5,20.1667 44.5,19.5 Z"/></g>
<g><path style="opacity:0.804" fill="#f6f17c" d="M 45.5,19.5 C 47.2303,20.0256 48.5637,21.0256 49.5,22.5C 47.368,22.4456 46.0347,21.4456 45.5,19.5 Z"/></g>
<g><path style="opacity:1" fill="#f5eb41" d="M 127.5,20.5 C 127.833,20.5 128.167,20.5 128.5,20.5C 128.157,22.4832 128.824,23.8166 130.5,24.5C 130.357,26.2624 130.691,27.9291 131.5,29.5C 130.575,30.5624 129.575,30.5624 128.5,29.5C 127.326,28.4863 126.66,27.153 126.5,25.5C 126.216,23.5853 126.549,21.9187 127.5,20.5 Z"/></g>
<g><path style="opacity:1" fill="#f4e814" d="M 135.5,30.5 C 135.762,31.9778 135.429,33.3112 134.5,34.5C 133.893,34.3764 133.56,34.0431 133.5,33.5C 134.483,29.7016 134.817,25.7016 134.5,21.5C 135.561,23.0369 135.894,26.0369 135.5,30.5 Z"/></g>
<g><path style="opacity:0.549" fill="#f7f179" d="M 136.5,18.5 C 137.491,25.3134 137.825,32.3134 137.5,39.5C 136.833,39.5 136.5,39.1667 136.5,38.5C 136.806,35.6146 136.473,32.9479 135.5,30.5C 135.894,26.0369 135.561,23.0369 134.5,21.5C 134.167,21.5 133.833,21.5 133.5,21.5C 133.5,21.1667 133.5,20.8333 133.5,20.5C 133.821,18.9519 134.821,18.2852 136.5,18.5 Z"/></g>
<g><path style="opacity:0.42" fill="#f9f38d" d="M 107.5,20.5 C 107.5,21.1667 107.5,21.8333 107.5,22.5C 106.167,23.1667 105.167,24.1667 104.5,25.5C 103.833,25.8333 103.167,26.1667 102.5,26.5C 103.419,23.9108 105.086,21.9108 107.5,20.5 Z"/></g>
<g><path style="opacity:0.792" fill="#f3eb53" d="M 107.5,22.5 C 108.167,22.5 108.833,22.5 109.5,22.5C 108.833,23.8333 107.833,24.8333 106.5,25.5C 105.833,25.5 105.167,25.5 104.5,25.5C 105.167,24.1667 106.167,23.1667 107.5,22.5 Z"/></g>
<g><path style="opacity:0.847" fill="#f6f173" d="M 128.5,20.5 C 129.674,21.5137 130.34,22.847 130.5,24.5C 128.824,23.8166 128.157,22.4832 128.5,20.5 Z"/></g>
<g><path style="opacity:0.933" fill="#f4ee61" d="M 49.5,22.5 C 51.3885,23.604 53.0552,24.9373 54.5,26.5C 53.1526,25.9717 51.8193,25.805 50.5,26C 51.7101,27.0391 52.7101,28.2058 53.5,29.5C 50.883,28.2141 48.5496,26.5475 46.5,24.5C 47.4959,24.4142 48.3292,24.7476 49,25.5C 49.4828,24.552 49.6495,23.552 49.5,22.5 Z"/></g>
<g><path style="opacity:0.467" fill="#f9f599" d="M 32.5,18.5 C 32.5,19.1667 32.5,19.8333 32.5,20.5C 32.6621,22.5273 32.4955,24.5273 32,26.5C 31.6174,25.944 31.1174,25.6107 30.5,25.5C 29.8333,25.8333 29.1667,26.1667 28.5,26.5C 28.8212,24.9519 29.8212,24.2852 31.5,24.5C 31.2053,22.2646 31.5386,20.2646 32.5,18.5 Z"/></g>
<g><path style="opacity:0.973" fill="#f4ec4b" d="M 54.5,26.5 C 55.4916,26.3284 56.1583,26.6618 56.5,27.5C 56.5,27.8333 56.5,28.1667 56.5,28.5C 55.375,29.3478 55.375,30.3478 56.5,31.5C 54.9731,31.573 53.9731,30.9063 53.5,29.5C 52.7101,28.2058 51.7101,27.0391 50.5,26C 51.8193,25.805 53.1526,25.9717 54.5,26.5 Z"/></g>
<g><path style="opacity:0.984" fill="#f5ee65" d="M 104.5,25.5 C 105.167,25.5 105.833,25.5 106.5,25.5C 105.551,27.7772 104.218,29.7772 102.5,31.5C 102.649,30.448 102.483,29.448 102,28.5C 101.292,29.3805 100.458,30.0472 99.5,30.5C 99.7376,28.5956 100.738,27.2623 102.5,26.5C 103.167,26.1667 103.833,25.8333 104.5,25.5 Z"/></g>
<g><path style="opacity:0.437" fill="#f2ec55" d="M 133.5,21.5 C 133.833,21.5 134.167,21.5 134.5,21.5C 134.817,25.7016 134.483,29.7016 133.5,33.5C 133.167,32.1667 132.833,30.8333 132.5,29.5C 133.473,27.0521 133.806,24.3854 133.5,21.5 Z"/></g>
<g><path style="opacity:0.886" fill="#f0e930" d="M 30.5,25.5 C 30.5,26.5 30.5,27.5 30.5,28.5C 30.7845,30.4147 30.4511,32.0813 29.5,33.5C 29.7373,32.209 29.404,31.209 28.5,30.5C 28.5,29.1667 28.5,27.8333 28.5,26.5C 29.1667,26.1667 29.8333,25.8333 30.5,25.5 Z"/></g>
<g><path style="opacity:0.78" fill="#f6f176" d="M 56.5,27.5 C 58.8816,28.3507 60.8816,29.684 62.5,31.5C 61.8333,31.5 61.1667,31.5 60.5,31.5C 59.1667,30.5 57.8333,29.5 56.5,28.5C 56.5,28.1667 56.5,27.8333 56.5,27.5 Z"/></g>
<g><path style="opacity:0.792" fill="#f2ec5d" d="M 32.5,20.5 C 33.4834,24.2984 33.8168,28.2984 33.5,32.5C 33.3755,37.0485 32.7089,41.3819 31.5,45.5C 31.634,43.7085 31.3007,42.0418 30.5,40.5C 31.2264,36.3205 31.2264,32.3205 30.5,28.5C 30.5,27.5 30.5,26.5 30.5,25.5C 31.1174,25.6107 31.6174,25.944 32,26.5C 32.4955,24.5273 32.6621,22.5273 32.5,20.5 Z"/></g>
<g><path style="opacity:0.963" fill="#f1e824" d="M 56.5,28.5 C 57.8333,29.5 59.1667,30.5 60.5,31.5C 59.2976,32.4054 57.9643,32.4054 56.5,31.5C 55.375,30.3478 55.375,29.3478 56.5,28.5 Z"/></g>
<g><path style="opacity:0.953" fill="#f1ea48" d="M 102.5,31.5 C 101.5,32.8333 100.5,34.1667 99.5,35.5C 98.6236,35.6309 97.9569,35.2975 97.5,34.5C 98.6302,33.3777 99.2969,32.0443 99.5,30.5C 100.458,30.0472 101.292,29.3805 102,28.5C 102.483,29.448 102.649,30.448 102.5,31.5 Z"/></g>
<g><path style="opacity:0.98" fill="#f3ec50" d="M 56.5,31.5 C 57.9643,32.4054 59.2976,32.4054 60.5,31.5C 61.1667,31.5 61.8333,31.5 62.5,31.5C 62.8333,31.5 63.1667,31.5 63.5,31.5C 64.9143,33.5983 64.2476,34.5983 61.5,34.5C 59.326,34.2503 57.6594,33.2503 56.5,31.5 Z"/></g>
<g><path style="opacity:1" fill="#f6ee59" d="M 130.5,24.5 C 131.931,25.7804 132.598,27.4471 132.5,29.5C 132.833,30.8333 133.167,32.1667 133.5,33.5C 132.566,34.5676 132.232,35.901 132.5,37.5C 130.659,35.1515 129.326,32.4848 128.5,29.5C 129.575,30.5624 130.575,30.5624 131.5,29.5C 130.691,27.9291 130.357,26.2624 130.5,24.5 Z"/></g>
<g><path style="opacity:0.937" fill="#f7f27e" d="M 28.5,26.5 C 28.5,27.8333 28.5,29.1667 28.5,30.5C 28.3259,32.861 27.9926,35.1944 27.5,37.5C 26.8333,38.1667 26.1667,38.8333 25.5,39.5C 25.9769,34.9292 26.9769,30.5959 28.5,26.5 Z"/></g>
<g><path style="opacity:0.227" fill="#f8f487" d="M 30.5,28.5 C 31.2264,32.3205 31.2264,36.3205 30.5,40.5C 29.5489,41.9187 29.2155,43.5853 29.5,45.5C 29.8404,47.5476 29.5071,48.5476 28.5,48.5C 28.5,45.8333 28.5,43.1667 28.5,40.5C 28.9926,38.1944 29.3259,35.861 29.5,33.5C 30.4511,32.0813 30.7845,30.4147 30.5,28.5 Z"/></g>
<g><path style="opacity:0.941" fill="#f6f06e" d="M 63.5,31.5 C 65.8185,31.9925 67.8185,32.9925 69.5,34.5C 68.1266,34.3433 66.7932,34.51 65.5,35C 66.056,35.3826 66.3893,35.8826 66.5,36.5C 64.597,36.2041 62.9303,35.5375 61.5,34.5C 64.2476,34.5983 64.9143,33.5983 63.5,31.5 Z"/></g>
<g><path style="opacity:1" fill="#f6ed51" d="M 135.5,30.5 C 136.473,32.9479 136.806,35.6146 136.5,38.5C 135.35,37.1498 134.683,37.3164 134.5,39C 135.348,41.7695 135.681,44.6029 135.5,47.5C 135.5,48.8333 135.5,50.1667 135.5,51.5C 134.667,46.9192 133.667,42.2525 132.5,37.5C 132.232,35.901 132.566,34.5676 133.5,33.5C 133.56,34.0431 133.893,34.3764 134.5,34.5C 135.429,33.3112 135.762,31.9778 135.5,30.5 Z"/></g>
<g><path style="opacity:1" fill="#f3e920" d="M 28.5,30.5 C 29.404,31.209 29.7373,32.209 29.5,33.5C 29.3259,35.861 28.9926,38.1944 28.5,40.5C 27.596,39.791 27.2627,38.791 27.5,37.5C 27.9926,35.1944 28.3259,32.861 28.5,30.5 Z"/></g>
<g><path style="opacity:0.98" fill="#f6ee69" d="M 99.5,30.5 C 99.2969,32.0443 98.6302,33.3777 97.5,34.5C 97.9569,35.2975 98.6236,35.6309 99.5,35.5C 98.4884,36.8717 97.4884,38.205 96.5,39.5C 95.1667,39.5 94.5,38.8333 94.5,37.5C 95.4333,34.6298 97.1,32.2964 99.5,30.5 Z"/></g>
<g><path style="opacity:0.776" fill="#f5ee68" d="M 66.5,36.5 C 68.698,36.1201 70.3646,36.7868 71.5,38.5C 69.597,38.2041 67.9303,37.5375 66.5,36.5 Z"/></g>
<g><path style="opacity:0.996" fill="#f1e826" d="M 69.5,34.5 C 71.2504,35.8698 73.2504,36.8698 75.5,37.5C 75.5,37.8333 75.5,38.1667 75.5,38.5C 74.1667,38.5 72.8333,38.5 71.5,38.5C 70.3646,36.7868 68.698,36.1201 66.5,36.5C 66.3893,35.8826 66.056,35.3826 65.5,35C 66.7932,34.51 68.1266,34.3433 69.5,34.5 Z"/></g>
<g><path style="opacity:0.196" fill="#f8f489" d="M 69.5,34.5 C 73.5368,35.0653 77.2034,36.3987 80.5,38.5C 78.7839,38.3713 77.1172,38.038 75.5,37.5C 73.2504,36.8698 71.2504,35.8698 69.5,34.5 Z"/></g>
<g><path style="opacity:0.678" fill="#f5ef70" d="M 71.5,38.5 C 72.8333,38.5 74.1667,38.5 75.5,38.5C 75.8333,39.1667 76.1667,39.8333 76.5,40.5C 74.597,40.2041 72.9303,39.5375 71.5,38.5 Z"/></g>
<g><path style="opacity:0.937" fill="#f1e932" d="M 75.5,37.5 C 77.1172,38.038 78.7839,38.3713 80.5,38.5C 80.8333,38.5 81.1667,38.5 81.5,38.5C 80.4479,40.256 78.7812,40.9227 76.5,40.5C 76.1667,39.8333 75.8333,39.1667 75.5,38.5C 75.5,38.1667 75.5,37.8333 75.5,37.5 Z"/></g>
<g><path style="opacity:0.843" fill="#f7ef6f" d="M 94.5,37.5 C 94.5,38.8333 95.1667,39.5 96.5,39.5C 96.0679,40.7095 95.4013,41.7095 94.5,42.5C 94.5,41.1667 93.8333,40.5 92.5,40.5C 92.427,38.9731 93.0937,37.9731 94.5,37.5 Z"/></g>
<g><path style="opacity:1" fill="#f4e915" d="M 136.5,38.5 C 136.5,39.1667 136.833,39.5 137.5,39.5C 137.5,40.1667 137.5,40.8333 137.5,41.5C 136.539,43.2646 136.205,45.2646 136.5,47.5C 136.167,47.5 135.833,47.5 135.5,47.5C 135.681,44.6029 135.348,41.7695 134.5,39C 134.683,37.3164 135.35,37.1498 136.5,38.5 Z"/></g>
<g><path style="opacity:0.949" fill="#f1ea43" d="M 27.5,37.5 C 27.2627,38.791 27.596,39.791 28.5,40.5C 28.5,43.1667 28.5,45.8333 28.5,48.5C 28.1667,48.5 27.8333,48.5 27.5,48.5C 27.6633,46.1432 27.4966,43.8098 27,41.5C 26.5006,46.8229 26.334,52.1563 26.5,57.5C 26.1667,57.5 25.8333,57.5 25.5,57.5C 25.5,51.5 25.5,45.5 25.5,39.5C 26.1667,38.8333 26.8333,38.1667 27.5,37.5 Z"/></g>
<g><path style="opacity:0.894" fill="#f5ed62" d="M 81.5,38.5 C 84.0673,38.7215 86.4006,39.3882 88.5,40.5C 86.2646,40.2053 84.2646,40.5386 82.5,41.5C 81.8333,41.5 81.1667,41.5 80.5,41.5C 78.901,41.7678 77.5676,41.4345 76.5,40.5C 78.7812,40.9227 80.4479,40.256 81.5,38.5 Z"/></g>
<g><path style="opacity:0.912" fill="#f3ea44" d="M 82.5,41.5 C 84.2646,40.5386 86.2646,40.2053 88.5,40.5C 89.8333,40.5 91.1667,40.5 92.5,40.5C 93.8333,40.5 94.5,41.1667 94.5,42.5C 94.6716,43.4916 94.3382,44.1583 93.5,44.5C 91.7839,44.3713 90.1172,44.038 88.5,43.5C 86.6976,42.5418 84.6976,41.8751 82.5,41.5 Z"/></g>
<g><path style="opacity:0.494" fill="#f8f280" d="M 80.5,41.5 C 81.1667,41.5 81.8333,41.5 82.5,41.5C 84.6976,41.8751 86.6976,42.5418 88.5,43.5C 85.5049,43.7062 82.8383,43.0395 80.5,41.5 Z"/></g>
<g><path style="opacity:1" fill="#f6eb07" d="M 137.5,41.5 C 138.641,43.5487 138.641,45.5487 137.5,47.5C 137.167,47.5 136.833,47.5 136.5,47.5C 136.205,45.2646 136.539,43.2646 137.5,41.5 Z"/></g>
<g><path style="opacity:0.759" fill="#f2ea52" d="M 30.5,40.5 C 31.3007,42.0418 31.634,43.7085 31.5,45.5C 31.5,46.5 31.5,47.5 31.5,48.5C 31.1667,48.5 30.8333,48.5 30.5,48.5C 30.7373,47.209 30.404,46.209 29.5,45.5C 29.2155,43.5853 29.5489,41.9187 30.5,40.5 Z"/></g>
<g><path style="opacity:0.071" fill="#f8f692" d="M 88.5,43.5 C 90.1172,44.038 91.7839,44.3713 93.5,44.5C 91.5453,45.9302 89.8786,45.5969 88.5,43.5 Z"/></g>
<g><path style="opacity:1" fill="#f3eb3c" d="M 137.5,39.5 C 139.204,42.2558 140.537,45.2558 141.5,48.5C 140.833,49.1667 140.167,49.8333 139.5,50.5C 138.662,50.1583 138.328,49.4916 138.5,48.5C 138.5,47.8333 138.167,47.5 137.5,47.5C 138.641,45.5487 138.641,43.5487 137.5,41.5C 137.5,40.8333 137.5,40.1667 137.5,39.5 Z"/></g>
<g><path style="opacity:0.631" fill="#f2ea4a" d="M 29.5,45.5 C 30.404,46.209 30.7373,47.209 30.5,48.5C 30.9118,50.9726 29.9118,52.3059 27.5,52.5C 27.5,51.1667 27.5,49.8333 27.5,48.5C 27.8333,48.5 28.1667,48.5 28.5,48.5C 29.5071,48.5476 29.8404,47.5476 29.5,45.5 Z"/></g>
<g><path style="opacity:0.945" fill="#f4ed52" d="M 135.5,47.5 C 135.833,47.5 136.167,47.5 136.5,47.5C 136.833,47.5 137.167,47.5 137.5,47.5C 138.167,47.5 138.5,47.8333 138.5,48.5C 137.566,49.5676 137.232,50.901 137.5,52.5C 136.539,54.2646 136.205,56.2646 136.5,58.5C 135.532,56.3926 135.198,54.0593 135.5,51.5C 135.5,50.1667 135.5,48.8333 135.5,47.5 Z"/></g>
<g><path style="opacity:0.71" fill="#f6ef71" d="M 30.5,48.5 C 30.8333,48.5 31.1667,48.5 31.5,48.5C 30.0811,57.5611 30.4144,66.5611 32.5,75.5C 32.1667,75.5 31.8333,75.5 31.5,75.5C 31.1977,72.6275 30.531,69.9608 29.5,67.5C 30.0265,62.193 29.3598,57.193 27.5,52.5C 29.9118,52.3059 30.9118,50.9726 30.5,48.5 Z"/></g>
<g><path style="opacity:0.987" fill="#f3e919" d="M 27.5,48.5 C 27.5,49.8333 27.5,51.1667 27.5,52.5C 29.3598,57.193 30.0265,62.193 29.5,67.5C 29.7709,69.3797 29.1042,70.713 27.5,71.5C 27.6469,66.7858 27.3136,62.1191 26.5,57.5C 26.334,52.1563 26.5006,46.8229 27,41.5C 27.4966,43.8098 27.6633,46.1432 27.5,48.5 Z"/></g>
<g><path style="opacity:0.718" fill="#f2eb4f" d="M 138.5,48.5 C 138.328,49.4916 138.662,50.1583 139.5,50.5C 139.5,51.1667 139.5,51.8333 139.5,52.5C 138.833,52.5 138.5,52.8333 138.5,53.5C 138.5,54.1667 138.5,54.8333 138.5,55.5C 137.596,54.791 137.263,53.791 137.5,52.5C 137.232,50.901 137.566,49.5676 138.5,48.5 Z"/></g>
<g><path style="opacity:0.039" fill="#fcf89d" d="M 138.5,53.5 C 138.833,53.5 139.167,53.5 139.5,53.5C 140.338,53.8417 140.672,54.5084 140.5,55.5C 139.662,55.8417 139.328,56.5084 139.5,57.5C 139.167,57.5 138.833,57.5 138.5,57.5C 138.5,56.8333 138.5,56.1667 138.5,55.5C 138.5,54.8333 138.5,54.1667 138.5,53.5 Z"/></g>
<g><path style="opacity:0.833" fill="#f1e82b" d="M 137.5,52.5 C 137.263,53.791 137.596,54.791 138.5,55.5C 138.5,56.1667 138.5,56.8333 138.5,57.5C 137.833,58.5 137.167,59.5 136.5,60.5C 136.5,59.8333 136.5,59.1667 136.5,58.5C 136.205,56.2646 136.539,54.2646 137.5,52.5 Z"/></g>
<g><path style="opacity:1" fill="#f3ea2d" d="M 141.5,48.5 C 142.537,49.9303 143.204,51.597 143.5,53.5C 143.433,55.4008 143.767,57.2341 144.5,59C 144.164,60.0299 143.497,60.5299 142.5,60.5C 142.598,58.4471 141.931,56.7804 140.5,55.5C 140.672,54.5084 140.338,53.8417 139.5,53.5C 139.5,53.1667 139.5,52.8333 139.5,52.5C 139.5,51.8333 139.5,51.1667 139.5,50.5C 140.167,49.8333 140.833,49.1667 141.5,48.5 Z"/></g>
<g><path style="opacity:0.157" fill="#f5f378" d="M 140.5,55.5 C 141.931,56.7804 142.598,58.4471 142.5,60.5C 141.069,59.2196 140.402,57.5529 140.5,55.5 Z"/></g>
<g><path style="opacity:0.996" fill="#f4ed5a" d="M 143.5,53.5 C 145.065,55.5093 146.065,57.8427 146.5,60.5C 145.522,60.811 144.855,61.4777 144.5,62.5C 145.309,64.0709 145.643,65.7376 145.5,67.5C 144.264,65.351 143.264,63.0177 142.5,60.5C 143.497,60.5299 144.164,60.0299 144.5,59C 143.767,57.2341 143.433,55.4008 143.5,53.5 Z"/></g>
<g><path style="opacity:0.973" fill="#f3ed51" d="M 138.5,57.5 C 138.833,57.5 139.167,57.5 139.5,57.5C 139.5,59.8333 139.5,62.1667 139.5,64.5C 139.5,67.1667 139.5,69.8333 139.5,72.5C 138.539,74.2646 138.205,76.2646 138.5,78.5C 137.054,72.7263 136.388,66.7263 136.5,60.5C 137.167,59.5 137.833,58.5 138.5,57.5 Z"/></g>
<g><path style="opacity:0.98" fill="#f2ea1d" d="M 146.5,60.5 C 146.286,62.1439 146.62,63.6439 147.5,65C 146.934,65.9947 146.267,66.828 145.5,67.5C 145.643,65.7376 145.309,64.0709 144.5,62.5C 144.855,61.4777 145.522,60.811 146.5,60.5 Z"/></g>
<g><path style="opacity:1" fill="#f4ed5a" d="M 146.5,60.5 C 147.736,62.649 148.736,64.9823 149.5,67.5C 148.503,67.4701 147.836,67.9701 147.5,69C 148.148,70.4397 148.481,71.9397 148.5,73.5C 146.992,71.8185 145.992,69.8185 145.5,67.5C 146.267,66.828 146.934,65.9947 147.5,65C 146.62,63.6439 146.286,62.1439 146.5,60.5 Z"/></g>
<g><path style="opacity:0.263" fill="#f7f48e" d="M 109.5,63.5 C 114.317,64.2373 115.65,66.904 113.5,71.5C 111.694,72.8587 110.194,72.5254 109,70.5C 108.297,68.0709 108.463,65.7375 109.5,63.5 Z"/></g>
<g><path style="opacity:1" fill="#f4e91b" d="M 109.5,65.5 C 112.91,65.3838 114.244,67.0504 113.5,70.5C 110.09,70.6162 108.756,68.9496 109.5,65.5 Z"/></g>
<g><path style="opacity:0.996" fill="#f4ea30" d="M 149.5,67.5 C 150.674,68.5137 151.34,69.847 151.5,71.5C 151.657,72.8734 151.49,74.2068 151,75.5C 150.329,74.7476 149.496,74.4142 148.5,74.5C 148.5,74.1667 148.5,73.8333 148.5,73.5C 148.481,71.9397 148.148,70.4397 147.5,69C 147.836,67.9701 148.503,67.4701 149.5,67.5 Z"/></g>
<g><path style="opacity:1" fill="#f4ea1c" d="M 29.5,67.5 C 30.531,69.9608 31.1977,72.6275 31.5,75.5C 31.7373,76.791 31.404,77.791 30.5,78.5C 30.6716,77.5084 30.3382,76.8417 29.5,76.5C 29.6347,74.4458 28.968,72.7791 27.5,71.5C 29.1042,70.713 29.7709,69.3797 29.5,67.5 Z"/></g>
<g><path style="opacity:0.627" fill="#f7f27a" d="M 25.5,57.5 C 25.8333,57.5 26.1667,57.5 26.5,57.5C 27.3136,62.1191 27.6469,66.7858 27.5,71.5C 28.968,72.7791 29.6347,74.4458 29.5,76.5C 28.8333,78.8333 28.1667,81.1667 27.5,83.5C 27.6646,80.4816 27.498,77.4816 27,74.5C 26.8091,76.7078 26.3091,78.7078 25.5,80.5C 26.6355,72.8222 26.6355,65.1555 25.5,57.5 Z"/></g>
<g><path style="opacity:0.902" fill="#f4ed56" d="M 139.5,72.5 C 140.434,73.5676 140.768,74.901 140.5,76.5C 139.523,79.2869 139.19,82.2869 139.5,85.5C 138.532,83.3926 138.198,81.0593 138.5,78.5C 138.205,76.2646 138.539,74.2646 139.5,72.5 Z"/></g>
<g><path style="opacity:0.62" fill="#f7f392" d="M 71.5,78.5 C 71.1667,78.5 70.8333,78.5 70.5,78.5C 70.1667,77.5 69.5,76.8333 68.5,76.5C 67.5084,76.3284 66.8417,76.6618 66.5,77.5C 66.1667,77.5 65.8333,77.5 65.5,77.5C 67.9923,73.3879 69.9923,73.7212 71.5,78.5 Z"/></g>
<g><path style="opacity:0.996" fill="#f4ed58" d="M 151.5,71.5 C 153.341,73.8485 154.674,76.5152 155.5,79.5C 153.926,79.0629 152.759,78.0629 152,76.5C 152.135,78.4247 152.302,80.4247 152.5,82.5C 151.199,79.8987 149.866,77.232 148.5,74.5C 149.496,74.4142 150.329,74.7476 151,75.5C 151.49,74.2068 151.657,72.8734 151.5,71.5 Z"/></g>
<g><path style="opacity:0.2" fill="#f6f17d" d="M 139.5,64.5 C 140.801,68.9426 141.468,73.6093 141.5,78.5C 140.662,78.1583 140.328,77.4916 140.5,76.5C 140.768,74.901 140.434,73.5676 139.5,72.5C 139.5,69.8333 139.5,67.1667 139.5,64.5 Z"/></g>
<g><path style="opacity:1" fill="#f0e920" d="M 31.5,75.5 C 31.8333,75.5 32.1667,75.5 32.5,75.5C 32.6633,77.8568 32.4966,80.1902 32,82.5C 31.2086,81.255 30.7086,79.9217 30.5,78.5C 31.404,77.791 31.7373,76.791 31.5,75.5 Z"/></g>
<g><path style="opacity:0.996" fill="#f5ea29" d="M 68.5,76.5 C 68.3259,78.861 67.9926,81.1944 67.5,83.5C 67.1667,83.5 66.8333,83.5 66.5,83.5C 65.1667,81.5 65.1667,79.5 66.5,77.5C 66.8417,76.6618 67.5084,76.3284 68.5,76.5 Z"/></g>
<g><path style="opacity:1" fill="#f6e910" d="M 68.5,76.5 C 69.5,76.8333 70.1667,77.5 70.5,78.5C 70.5,80.5 70.5,82.5 70.5,84.5C 69.209,84.7373 68.209,84.404 67.5,83.5C 67.9926,81.1944 68.3259,78.861 68.5,76.5 Z"/></g>
<g><path style="opacity:1" fill="#f5ec41" d="M 155.5,79.5 C 155.357,81.2624 155.691,82.9291 156.5,84.5C 156.145,85.5223 155.478,86.189 154.5,86.5C 153.326,85.4863 152.66,84.153 152.5,82.5C 152.302,80.4247 152.135,78.4247 152,76.5C 152.759,78.0629 153.926,79.0629 155.5,79.5 Z"/></g>
<g><path style="opacity:0.588" fill="#f4ee67" d="M 65.5,77.5 C 65.8333,77.5 66.1667,77.5 66.5,77.5C 65.1667,79.5 65.1667,81.5 66.5,83.5C 62.8435,82.1742 62.5101,80.1742 65.5,77.5 Z"/></g>
<g><path style="opacity:0.711" fill="#f6ef71" d="M 70.5,78.5 C 70.8333,78.5 71.1667,78.5 71.5,78.5C 73.1585,81.8822 72.6585,84.8822 70,87.5C 67.9286,86.8971 66.7619,85.5638 66.5,83.5C 66.8333,83.5 67.1667,83.5 67.5,83.5C 68.209,84.404 69.209,84.7373 70.5,84.5C 70.5,82.5 70.5,80.5 70.5,78.5 Z"/></g>
<g><path style="opacity:0.996" fill="#f4ee5d" d="M 32.5,75.5 C 34.1016,79.2393 35.1016,83.2393 35.5,87.5C 35.1667,87.5 34.8333,87.5 34.5,87.5C 34.6495,86.448 34.4828,85.448 34,84.5C 33.31,83.2617 32.81,83.2617 32.5,84.5C 31.8333,84.1667 31.1667,83.8333 30.5,83.5C 29.7814,81.2362 29.448,78.9029 29.5,76.5C 30.3382,76.8417 30.6716,77.5084 30.5,78.5C 30.7086,79.9217 31.2086,81.255 32,82.5C 32.4966,80.1902 32.6633,77.8568 32.5,75.5 Z"/></g>
<g><path style="opacity:0.851" fill="#f2e829" d="M 140.5,76.5 C 140.328,77.4916 140.662,78.1583 141.5,78.5C 141.5,78.8333 141.5,79.1667 141.5,79.5C 141.5,90.1667 141.5,100.833 141.5,111.5C 140.833,103.833 140.167,96.1667 139.5,88.5C 139.5,87.5 139.5,86.5 139.5,85.5C 139.19,82.2869 139.523,79.2869 140.5,76.5 Z"/></g>
<g><path style="opacity:1" fill="#f3e914" d="M 34.5,87.5 C 34.6716,88.4916 34.3382,89.1583 33.5,89.5C 32.962,87.8828 32.6287,86.2161 32.5,84.5C 32.81,83.2617 33.31,83.2617 34,84.5C 34.4828,85.448 34.6495,86.448 34.5,87.5 Z"/></g>
<g><path style="opacity:0.255" fill="#f6f178" d="M 30.5,83.5 C 31.1667,83.8333 31.8333,84.1667 32.5,84.5C 32.6287,86.2161 32.962,87.8828 33.5,89.5C 33.5,90.1667 33.5,90.8333 33.5,91.5C 32.129,89.064 31.129,86.3973 30.5,83.5 Z"/></g>
<g><path style="opacity:0.973" fill="#f4ef62" d="M 155.5,79.5 C 157.065,81.5093 158.065,83.8427 158.5,86.5C 156.824,87.1834 156.157,88.5168 156.5,90.5C 155.326,89.4863 154.66,88.153 154.5,86.5C 155.478,86.189 156.145,85.5223 156.5,84.5C 155.691,82.9291 155.357,81.2624 155.5,79.5 Z"/></g>
<g><path style="opacity:1" fill="#f3eb36" d="M 158.5,86.5 C 159.674,87.5137 160.34,88.847 160.5,90.5C 159.508,90.3284 158.842,90.6618 158.5,91.5C 157.833,91.5 157.167,91.5 156.5,91.5C 156.5,91.1667 156.5,90.8333 156.5,90.5C 156.157,88.5168 156.824,87.1834 158.5,86.5 Z"/></g>
<g><path style="opacity:0.659" fill="#f7f07c" d="M 35.5,87.5 C 36.5375,88.9303 37.2041,90.597 37.5,92.5C 35.7868,91.3646 35.1201,89.698 35.5,87.5 Z"/></g>
<g><path style="opacity:0.996" fill="#f4eb40" d="M 34.5,87.5 C 34.8333,87.5 35.1667,87.5 35.5,87.5C 35.1201,89.698 35.7868,91.3646 37.5,92.5C 37.5,92.8333 37.5,93.1667 37.5,93.5C 37.5,93.8333 37.5,94.1667 37.5,94.5C 36.0755,92.9689 35.4088,93.3023 35.5,95.5C 35.1667,95.5 34.8333,95.5 34.5,95.5C 33.5655,94.4324 33.2322,93.099 33.5,91.5C 33.5,90.8333 33.5,90.1667 33.5,89.5C 34.3382,89.1583 34.6716,88.4916 34.5,87.5 Z"/></g>
<g><path style="opacity:0.635" fill="#f6f381" d="M 156.5,91.5 C 157.167,91.5 157.833,91.5 158.5,91.5C 158.5,92.5 158.5,93.5 158.5,94.5C 157.599,93.7095 156.932,92.7095 156.5,91.5 Z"/></g>
<g><path style="opacity:1" fill="#f3ea23" d="M 160.5,90.5 C 160.851,92.8695 161.018,95.2028 161,97.5C 160.583,96.244 159.75,95.5774 158.5,95.5C 158.5,95.1667 158.5,94.8333 158.5,94.5C 158.5,93.5 158.5,92.5 158.5,91.5C 158.842,90.6618 159.508,90.3284 160.5,90.5 Z"/></g>
<g><path style="opacity:0.824" fill="#f2eb57" d="M 27.5,83.5 C 27.7059,87.8982 27.3726,92.2315 26.5,96.5C 25.71,97.6085 25.21,98.9419 25,100.5C 24.5017,97.1832 24.335,93.8499 24.5,90.5C 24.3424,87.0977 24.6758,83.7644 25.5,80.5C 26.3091,78.7078 26.8091,76.7078 27,74.5C 27.498,77.4816 27.6646,80.4816 27.5,83.5 Z"/></g>
<g><path style="opacity:0.655" fill="#f6ef6c" d="M 37.5,93.5 C 38.5375,94.9303 39.2041,96.597 39.5,98.5C 37.8958,97.713 37.2291,96.3797 37.5,94.5C 37.5,94.1667 37.5,93.8333 37.5,93.5 Z"/></g>
<g><path style="opacity:0.99" fill="#f6ee63" d="M 160.5,90.5 C 163.247,93.7226 165.247,97.3893 166.5,101.5C 166.167,101.5 165.833,101.5 165.5,101.5C 163.147,97.1883 162.147,97.5216 162.5,102.5C 160.929,100.365 159.596,98.0316 158.5,95.5C 159.75,95.5774 160.583,96.244 161,97.5C 161.018,95.2028 160.851,92.8695 160.5,90.5 Z"/></g>
<g><path style="opacity:0.282" fill="#f8f583" d="M 34.5,95.5 C 34.8333,95.5 35.1667,95.5 35.5,95.5C 36.038,97.1172 36.3713,98.7839 36.5,100.5C 35.0687,99.2196 34.4021,97.5529 34.5,95.5 Z"/></g>
<g><path style="opacity:0.992" fill="#f3e938" d="M 37.5,94.5 C 37.2291,96.3797 37.8958,97.713 39.5,98.5C 40.4408,100.05 41.1075,101.716 41.5,103.5C 39.9069,102.652 38.7403,101.319 38,99.5C 37.6012,99.7284 37.4346,100.062 37.5,100.5C 37.1667,100.5 36.8333,100.5 36.5,100.5C 36.3713,98.7839 36.038,97.1172 35.5,95.5C 35.4088,93.3023 36.0755,92.9689 37.5,94.5 Z"/></g>
<g><path style="opacity:0.82" fill="#f7f282" d="M 24.5,90.5 C 24.335,93.8499 24.5017,97.1832 25,100.5C 25.21,98.9419 25.71,97.6085 26.5,96.5C 26.2593,101.694 25.5926,106.694 24.5,111.5C 24.665,108.15 24.4983,104.817 24,101.5C 23.8091,103.708 23.3091,105.708 22.5,107.5C 22.596,101.627 23.2627,95.9601 24.5,90.5 Z"/></g>
<g><path style="opacity:0.984" fill="#f2ea27" d="M 41.5,103.5 C 41.5,103.833 41.5,104.167 41.5,104.5C 41.5,105.167 41.5,105.833 41.5,106.5C 40.5,107.833 39.5,107.833 38.5,106.5C 38.4828,104.435 38.1495,102.435 37.5,100.5C 37.4346,100.062 37.6012,99.7284 38,99.5C 38.7403,101.319 39.9069,102.652 41.5,103.5 Z"/></g>
<g><path style="opacity:0.125" fill="#f9f58e" d="M 36.5,100.5 C 36.8333,100.5 37.1667,100.5 37.5,100.5C 38.1495,102.435 38.4828,104.435 38.5,106.5C 37.2616,104.786 36.595,102.786 36.5,100.5 Z"/></g>
<g><path style="opacity:0.988" fill="#f7ee57" d="M 165.5,101.5 C 164.549,102.919 164.216,104.585 164.5,106.5C 163.326,105.486 162.66,104.153 162.5,102.5C 162.147,97.5216 163.147,97.1883 165.5,101.5 Z"/></g>
<g><path style="opacity:0.996" fill="#f3ea29" d="M 165.5,101.5 C 165.833,101.5 166.167,101.5 166.5,101.5C 166.357,103.262 166.691,104.929 167.5,106.5C 166.767,107.087 165.767,107.087 164.5,106.5C 164.216,104.585 164.549,102.919 165.5,101.5 Z"/></g>
<g><path style="opacity:0.468" fill="#f4ee6d" d="M 141.5,79.5 C 142.239,86.0154 142.905,92.6821 143.5,99.5C 142.914,105.653 142.247,111.653 141.5,117.5C 141.5,115.5 141.5,113.5 141.5,111.5C 141.5,100.833 141.5,90.1667 141.5,79.5 Z"/></g>
<g><path style="opacity:0.996" fill="#f9ef60" d="M 38.5,106.5 C 39.5,107.833 40.5,107.833 41.5,106.5C 41.5,108.5 41.5,110.5 41.5,112.5C 39.9925,110.819 38.9925,108.819 38.5,106.5 Z"/></g>
<g><path style="opacity:0.933" fill="#f4ec48" d="M 41.5,104.5 C 42.6737,105.514 43.3404,106.847 43.5,108.5C 42.8333,109.833 42.1667,111.167 41.5,112.5C 41.5,110.5 41.5,108.5 41.5,106.5C 41.5,105.833 41.5,105.167 41.5,104.5 Z"/></g>
<g><path style="opacity:1" fill="#f5ee5f" d="M 166.5,101.5 C 168.008,103.181 169.008,105.181 169.5,107.5C 168.539,109.265 168.205,111.265 168.5,113.5C 166.929,111.365 165.596,109.032 164.5,106.5C 165.767,107.087 166.767,107.087 167.5,106.5C 166.691,104.929 166.357,103.262 166.5,101.5 Z"/></g>
<g><path style="opacity:0.851" fill="#f3ed63" d="M 24.5,111.5 C 24.6576,114.902 24.3242,118.236 23.5,121.5C 23.1667,121.5 22.8333,121.5 22.5,121.5C 22.6495,120.448 22.4828,119.448 22,118.5C 21.7679,119.737 21.2679,120.737 20.5,121.5C 20.8434,116.747 21.51,112.081 22.5,107.5C 23.3091,105.708 23.8091,103.708 24,101.5C 24.4983,104.817 24.665,108.15 24.5,111.5 Z"/></g>
<g><path style="opacity:0.071" fill="#f8f390" d="M 169.5,107.5 C 170.906,107.973 171.573,108.973 171.5,110.5C 170.094,110.027 169.427,109.027 169.5,107.5 Z"/></g>
<g><path style="opacity:1" fill="#f4ee5a" d="M 43.5,108.5 C 44.6737,109.514 45.3404,110.847 45.5,112.5C 43.8235,113.183 43.1568,114.517 43.5,116.5C 42.3263,115.486 41.6596,114.153 41.5,112.5C 42.1667,111.167 42.8333,109.833 43.5,108.5 Z"/></g>
<g><path style="opacity:0.996" fill="#f3ea33" d="M 169.5,107.5 C 169.427,109.027 170.094,110.027 171.5,110.5C 171.357,112.262 171.691,113.929 172.5,115.5C 172.043,116.298 171.376,116.631 170.5,116.5C 169.599,115.71 168.932,114.71 168.5,113.5C 168.205,111.265 168.539,109.265 169.5,107.5 Z"/></g>
<g><path style="opacity:0.839" fill="#f5ec62" d="M 139.5,88.5 C 140.167,96.1667 140.833,103.833 141.5,111.5C 141.5,113.5 141.5,115.5 141.5,117.5C 141.802,120.059 141.468,122.393 140.5,124.5C 140.665,121.482 140.498,118.482 140,115.5C 139.617,116.056 139.117,116.389 138.5,116.5C 139.354,107.195 139.687,97.8612 139.5,88.5 Z"/></g>
<g><path style="opacity:0.98" fill="#f5ed4e" d="M 45.5,112.5 C 47.017,115.035 48.3503,117.702 49.5,120.5C 49.2865,122.144 49.6198,123.644 50.5,125C 49.9558,125.717 49.2891,126.217 48.5,126.5C 46.3256,123.485 44.6589,120.151 43.5,116.5C 43.1568,114.517 43.8235,113.183 45.5,112.5 Z"/></g>
<g><path style="opacity:1" fill="#f5ee59" d="M 171.5,110.5 C 173.341,112.849 174.674,115.515 175.5,118.5C 173.824,119.183 173.157,120.517 173.5,122.5C 171.992,120.819 170.992,118.819 170.5,116.5C 171.376,116.631 172.043,116.298 172.5,115.5C 171.691,113.929 171.357,112.262 171.5,110.5 Z"/></g>
<g><path style="opacity:0.947" fill="#f3ed62" d="M 113.5,121.5 C 113.598,123.553 112.931,125.22 111.5,126.5C 112.014,124.488 112.18,122.488 112,120.5C 111.722,121.416 111.222,122.082 110.5,122.5C 110.232,120.901 110.566,119.568 111.5,118.5C 112.268,117.737 112.768,116.737 113,115.5C 113.495,117.473 113.662,119.473 113.5,121.5 Z"/></g>
<g><path style="opacity:0.282" fill="#f5f28b" d="M 113.5,121.5 C 113.662,119.473 113.495,117.473 113,115.5C 112.768,116.737 112.268,117.737 111.5,118.5C 111.343,117.127 111.51,115.793 112,114.5C 112.667,113.167 113.333,113.167 114,114.5C 114.796,117.039 114.629,119.372 113.5,121.5 Z"/></g>
<g><path style="opacity:0.88" fill="#f3eb4d" d="M 140.5,124.5 C 140.768,126.099 140.434,127.432 139.5,128.5C 139.802,125.941 139.468,123.607 138.5,121.5C 138.5,120.167 138.5,118.833 138.5,117.5C 138.5,117.167 138.5,116.833 138.5,116.5C 139.117,116.389 139.617,116.056 140,115.5C 140.498,118.482 140.665,121.482 140.5,124.5 Z"/></g>
<g><path style="opacity:1" fill="#f4e925" d="M 175.5,118.5 C 175.674,120.861 176.007,123.194 176.5,125.5C 175.778,124.449 174.778,123.782 173.5,123.5C 173.5,123.167 173.5,122.833 173.5,122.5C 173.157,120.517 173.824,119.183 175.5,118.5 Z"/></g>
<g><path style="opacity:0.851" fill="#f1e94a" d="M 22.5,121.5 C 21.4368,130.133 20.7702,138.799 20.5,147.5C 19.5151,143.366 19.1818,139.032 19.5,134.5C 19.2307,130.069 19.564,125.735 20.5,121.5C 21.2679,120.737 21.7679,119.737 22,118.5C 22.4828,119.448 22.6495,120.448 22.5,121.5 Z"/></g>
<g><path style="opacity:0.384" fill="#f8f491" d="M 72.5,122.5 C 73.9063,122.973 74.573,123.973 74.5,125.5C 73.0937,125.027 72.427,124.027 72.5,122.5 Z"/></g>
<g><path style="opacity:0.537" fill="#f7f27c" d="M 173.5,123.5 C 174.778,123.782 175.778,124.449 176.5,125.5C 176.5,126.167 176.5,126.833 176.5,127.5C 175.026,126.564 174.026,125.23 173.5,123.5 Z"/></g>
<g><path style="opacity:0.02" fill="#faf79c" d="M 22.5,121.5 C 22.8333,121.5 23.1667,121.5 23.5,121.5C 22.6841,131.33 21.6841,140.997 20.5,150.5C 20.5,149.5 20.5,148.5 20.5,147.5C 20.7702,138.799 21.4368,130.133 22.5,121.5 Z"/></g>
<g><path style="opacity:0.933" fill="#f3ec4d" d="M 111.5,126.5 C 111.737,127.791 111.404,128.791 110.5,129.5C 109.35,130.85 108.683,130.684 108.5,129C 109.233,127.234 109.567,125.401 109.5,123.5C 109.5,122.833 109.833,122.5 110.5,122.5C 111.222,122.082 111.722,121.416 112,120.5C 112.18,122.488 112.014,124.488 111.5,126.5 Z"/></g>
<g><path style="opacity:0.663" fill="#f7f179" d="M 138.5,117.5 C 138.5,118.833 138.5,120.167 138.5,121.5C 138.326,123.861 137.993,126.194 137.5,128.5C 137.167,128.5 136.833,128.5 136.5,128.5C 136.808,124.64 137.475,120.974 138.5,117.5 Z"/></g>
<g><path style="opacity:0.122" fill="#f7f285" d="M 177.5,122.5 C 178.906,122.973 179.573,123.973 179.5,125.5C 179.167,125.5 178.833,125.5 178.5,125.5C 177.89,124.609 177.557,123.609 177.5,122.5 Z"/></g>
<g><path style="opacity:1" fill="#f4eb45" d="M 175.5,118.5 C 176.674,119.514 177.34,120.847 177.5,122.5C 177.557,123.609 177.89,124.609 178.5,125.5C 177.709,127.309 177.709,129.309 178.5,131.5C 177.326,130.486 176.66,129.153 176.5,127.5C 176.5,126.833 176.5,126.167 176.5,125.5C 176.007,123.194 175.674,120.861 175.5,118.5 Z"/></g>
<g><path style="opacity:0.863" fill="#f5ee57" d="M 49.5,120.5 C 51.0075,122.181 52.0075,124.181 52.5,126.5C 52.634,128.292 52.3007,129.958 51.5,131.5C 50.1103,130.101 49.1103,128.434 48.5,126.5C 49.2891,126.217 49.9558,125.717 50.5,125C 49.6198,123.644 49.2865,122.144 49.5,120.5 Z"/></g>
<g><path style="opacity:0.918" fill="#f6ee64" d="M 72.5,122.5 C 72.427,124.027 73.0937,125.027 74.5,125.5C 75.1667,125.5 75.5,125.833 75.5,126.5C 75.5,126.833 75.5,127.167 75.5,127.5C 74.6365,126.537 73.9698,126.537 73.5,127.5C 74.1272,128.417 74.4606,129.417 74.5,130.5C 70.8057,128.619 69.4724,125.786 70.5,122C 71.4368,121.308 72.1034,121.475 72.5,122.5 Z"/></g>
<g><path style="opacity:0.722" fill="#f8f38c" d="M 99.5,132.5 C 98.5,131.833 97.5,131.167 96.5,130.5C 95.5994,128.273 93.9328,127.273 91.5,127.5C 91.3691,126.624 91.7025,125.957 92.5,125.5C 95.8772,126.877 98.2106,129.21 99.5,132.5 Z"/></g>
<g><path style="opacity:0.898" fill="#f3e823" d="M 138.5,121.5 C 139.468,123.607 139.802,125.941 139.5,128.5C 138.778,128.918 138.278,129.584 138,130.5C 137.536,129.906 137.369,129.239 137.5,128.5C 137.993,126.194 138.326,123.861 138.5,121.5 Z"/></g>
<g><path style="opacity:0.98" fill="#f2e929" d="M 75.5,127.5 C 76.8333,129.5 78.5,131.167 80.5,132.5C 80.7822,133.778 81.4489,134.778 82.5,135.5C 81.8333,135.5 81.5,135.833 81.5,136.5C 80.3951,135.4 79.0618,134.733 77.5,134.5C 77.5,132.5 76.5,131.5 74.5,131.5C 74.5,131.167 74.5,130.833 74.5,130.5C 74.4606,129.417 74.1272,128.417 73.5,127.5C 73.9698,126.537 74.6365,126.537 75.5,127.5 Z"/></g>
<g><path style="opacity:0.557" fill="#f9f58f" d="M 75.5,126.5 C 77.914,127.911 79.5806,129.911 80.5,132.5C 78.5,131.167 76.8333,129.5 75.5,127.5C 75.5,127.167 75.5,126.833 75.5,126.5 Z"/></g>
<g><path style="opacity:0.996" fill="#f3ea1c" d="M 178.5,125.5 C 178.833,125.5 179.167,125.5 179.5,125.5C 179.357,127.262 179.691,128.929 180.5,130.5C 180.043,131.298 179.376,131.631 178.5,131.5C 177.709,129.309 177.709,127.309 178.5,125.5 Z"/></g>
<g><path style="opacity:0.965" fill="#f1e934" d="M 91.5,127.5 C 93.9328,127.273 95.5994,128.273 96.5,130.5C 95.8333,130.5 95.5,130.833 95.5,131.5C 92.9557,128.693 91.9557,129.36 92.5,133.5C 91.7784,133.918 91.2784,134.584 91,135.5C 90.8253,132.843 90.9919,130.176 91.5,127.5 Z"/></g>
<g><path style="opacity:0.994" fill="#f6ef67" d="M 52.5,126.5 C 53.9063,126.973 54.573,127.973 54.5,129.5C 53.5386,131.265 53.2053,133.265 53.5,135.5C 52.3263,134.486 51.6596,133.153 51.5,131.5C 52.3007,129.958 52.634,128.292 52.5,126.5 Z"/></g>
<g><path style="opacity:0.953" fill="#f6ef6e" d="M 136.5,128.5 C 136.833,128.5 137.167,128.5 137.5,128.5C 137.369,129.239 137.536,129.906 138,130.5C 138.278,129.584 138.778,128.918 139.5,128.5C 139.26,133.12 138.26,137.453 136.5,141.5C 136.5,139.833 136.5,138.167 136.5,136.5C 137.613,135.054 137.78,133.387 137,131.5C 136.722,132.416 136.222,133.082 135.5,133.5C 135.366,131.708 135.699,130.042 136.5,128.5 Z"/></g>
<g><path style="opacity:0.267" fill="#faf58e" d="M 74.5,131.5 C 76.5,131.5 77.5,132.5 77.5,134.5C 76.1667,133.833 75.1667,132.833 74.5,131.5 Z"/></g>
<g><path style="opacity:1" fill="#f5ef62" d="M 179.5,125.5 C 181.008,127.181 182.008,129.181 182.5,131.5C 181.503,134.005 181.503,136.672 182.5,139.5C 180.659,137.151 179.326,134.485 178.5,131.5C 179.376,131.631 180.043,131.298 180.5,130.5C 179.691,128.929 179.357,127.262 179.5,125.5 Z"/></g>
<g><path style="opacity:0.996" fill="#f5ee5b" d="M 54.5,129.5 C 55.8897,130.899 56.8897,132.566 57.5,134.5C 56.448,134.351 55.448,134.517 54.5,135C 55.5822,136.33 56.2488,137.83 56.5,139.5C 55.0256,138.564 54.0256,137.23 53.5,135.5C 53.2053,133.265 53.5386,131.265 54.5,129.5 Z"/></g>
<g><path style="opacity:0.004" fill="#fcfaaa" d="M 95.5,131.5 C 95.5,132.167 95.5,132.833 95.5,133.5C 94.5,132.167 93.5,132.167 92.5,133.5C 91.9557,129.36 92.9557,128.693 95.5,131.5 Z"/></g>
<g><path style="opacity:0.91" fill="#f1e92a" d="M 96.5,130.5 C 97.5,131.167 98.5,131.833 99.5,132.5C 99.9731,133.906 100.973,134.573 102.5,134.5C 103.448,135.978 104.781,136.978 106.5,137.5C 104.5,137.5 102.5,137.5 100.5,137.5C 99.4154,135.413 97.7488,134.08 95.5,133.5C 95.5,132.833 95.5,132.167 95.5,131.5C 95.5,130.833 95.8333,130.5 96.5,130.5 Z"/></g>
<g><path style="opacity:0.004" fill="#fcf9a9" d="M 99.5,132.5 C 101.027,132.427 102.027,133.094 102.5,134.5C 100.973,134.573 99.9731,133.906 99.5,132.5 Z"/></g>
<g><path style="opacity:0.761" fill="#f8f280" d="M 80.5,132.5 C 82.2303,133.026 83.5637,134.026 84.5,135.5C 83.8333,135.5 83.1667,135.5 82.5,135.5C 81.4489,134.778 80.7822,133.778 80.5,132.5 Z"/></g>
<g><path style="opacity:0.384" fill="#f7f486" d="M 95.5,133.5 C 97.7488,134.08 99.4154,135.413 100.5,137.5C 98.2512,136.92 96.5846,135.587 95.5,133.5 Z"/></g>
<g><path style="opacity:0.404" fill="#f8f283" d="M 77.5,134.5 C 79.0618,134.733 80.3951,135.4 81.5,136.5C 81.5,136.833 81.5,137.167 81.5,137.5C 79.5956,137.262 78.2623,136.262 77.5,134.5 Z"/></g>
<g><path style="opacity:0.984" fill="#f5ee69" d="M 109.5,123.5 C 109.567,125.401 109.233,127.234 108.5,129C 108.683,130.684 109.35,130.85 110.5,129.5C 110.02,132.443 109.02,135.11 107.5,137.5C 107.167,137.5 106.833,137.5 106.5,137.5C 104.781,136.978 103.448,135.978 102.5,134.5C 103.397,135.598 104.23,135.598 105,134.5C 106.428,130.693 107.928,127.026 109.5,123.5 Z"/></g>
<g><path style="opacity:0.937" fill="#f3eb48" d="M 136.5,136.5 C 136.565,136.062 136.399,135.728 136,135.5C 135.722,136.416 135.222,137.082 134.5,137.5C 134.232,135.901 134.566,134.568 135.5,133.5C 136.222,133.082 136.722,132.416 137,131.5C 137.78,133.387 137.613,135.054 136.5,136.5 Z"/></g>
<g><path style="opacity:0.967" fill="#f0ea38" d="M 82.5,135.5 C 83.1667,135.5 83.8333,135.5 84.5,135.5C 85.6808,137.067 87.3474,137.901 89.5,138C 87.5273,138.495 85.5273,138.662 83.5,138.5C 82.5084,138.672 81.8417,138.338 81.5,137.5C 81.5,137.167 81.5,136.833 81.5,136.5C 81.5,135.833 81.8333,135.5 82.5,135.5 Z"/></g>
<g><path style="opacity:0.839" fill="#f7f388" d="M 91.5,127.5 C 90.9919,130.176 90.8253,132.843 91,135.5C 91.2784,134.584 91.7784,133.918 92.5,133.5C 92.5979,135.553 91.9313,137.22 90.5,138.5C 90.5,137.167 89.8333,136.5 88.5,136.5C 89.0541,133.254 90.0541,130.254 91.5,127.5 Z"/></g>
<g><path style="opacity:0.992" fill="#f3ea2c" d="M 182.5,131.5 C 183.338,131.842 183.672,132.508 183.5,133.5C 183.795,135.735 183.461,137.735 182.5,139.5C 181.503,136.672 181.503,134.005 182.5,131.5 Z"/></g>
<g><path style="opacity:0.98" fill="#f5ed53" d="M 57.5,134.5 C 58.8897,135.899 59.8897,137.566 60.5,139.5C 58.8235,140.183 58.1568,141.517 58.5,143.5C 57.3263,142.486 56.6596,141.153 56.5,139.5C 56.2488,137.83 55.5822,136.33 54.5,135C 55.448,134.517 56.448,134.351 57.5,134.5 Z"/></g>
<g><path style="opacity:0.761" fill="#f5ef71" d="M 100.5,137.5 C 102.5,137.5 104.5,137.5 106.5,137.5C 106.833,137.5 107.167,137.5 107.5,137.5C 105.25,140.034 102.916,140.034 100.5,137.5 Z"/></g>
<g><path style="opacity:0.502" fill="#f1ed68" d="M 84.5,135.5 C 85.8333,135.833 87.1667,136.167 88.5,136.5C 89.8333,136.5 90.5,137.167 90.5,138.5C 88.1667,139.833 85.8333,139.833 83.5,138.5C 85.5273,138.662 87.5273,138.495 89.5,138C 87.3474,137.901 85.6808,137.067 84.5,135.5 Z"/></g>
<g><path style="opacity:0.988" fill="#f5eb4a" d="M 183.5,133.5 C 184.906,133.973 185.573,134.973 185.5,136.5C 185.357,138.262 185.691,139.929 186.5,141.5C 185.575,142.562 184.575,142.562 183.5,141.5C 182.662,141.158 182.328,140.492 182.5,139.5C 183.461,137.735 183.795,135.735 183.5,133.5 Z"/></g>
<g><path style="opacity:1" fill="#f3eb40" d="M 60.5,139.5 C 60.5569,140.609 60.8902,141.609 61.5,142.5C 60.7611,142.369 60.0944,142.536 59.5,143C 60.2524,143.671 60.5858,144.504 60.5,145.5C 59.5,145.167 58.8333,144.5 58.5,143.5C 58.1568,141.517 58.8235,140.183 60.5,139.5 Z"/></g>
<g><path style="opacity:1" fill="#f2eb45" d="M 136.5,136.5 C 136.5,138.167 136.5,139.833 136.5,141.5C 136.737,142.791 136.404,143.791 135.5,144.5C 134.262,146.214 133.595,148.214 133.5,150.5C 133.443,151.609 133.11,152.609 132.5,153.5C 131.624,153.631 130.957,153.298 130.5,152.5C 131.309,150.929 131.643,149.262 131.5,147.5C 131.5,147.167 131.5,146.833 131.5,146.5C 133.213,145.365 133.88,143.698 133.5,141.5C 133.232,139.901 133.566,138.568 134.5,137.5C 135.222,137.082 135.722,136.416 136,135.5C 136.399,135.728 136.565,136.062 136.5,136.5 Z"/></g>
<g><path style="opacity:0.196" fill="#faf591" d="M 60.5,139.5 C 61.9063,139.973 62.573,140.973 62.5,142.5C 62.1667,142.5 61.8333,142.5 61.5,142.5C 60.8902,141.609 60.5569,140.609 60.5,139.5 Z"/></g>
<g><path style="opacity:0.996" fill="#f2ea30" d="M 61.5,142.5 C 61.8333,142.5 62.1667,142.5 62.5,142.5C 62.7376,144.404 63.7376,145.738 65.5,146.5C 65.5,146.833 65.5,147.167 65.5,147.5C 64.6457,148.632 64.6457,149.965 65.5,151.5C 65.1667,151.5 64.8333,151.5 64.5,151.5C 64.1667,150.833 63.8333,150.167 63.5,149.5C 63.5323,147.381 62.5323,146.048 60.5,145.5C 60.5858,144.504 60.2524,143.671 59.5,143C 60.0944,142.536 60.7611,142.369 61.5,142.5 Z"/></g>
<g><path style="opacity:0.596" fill="#f2ee6b" d="M 185.5,136.5 C 187.163,138.438 187.829,140.772 187.5,143.5C 185.517,143.843 184.183,143.176 183.5,141.5C 184.575,142.562 185.575,142.562 186.5,141.5C 185.691,139.929 185.357,138.262 185.5,136.5 Z"/></g>
<g><path style="opacity:0.463" fill="#f8f488" d="M 62.5,142.5 C 64.2624,143.262 65.2624,144.596 65.5,146.5C 63.7376,145.738 62.7376,144.404 62.5,142.5 Z"/></g>
<g><path style="opacity:0.639" fill="#f8f48c" d="M 133.5,141.5 C 133.88,143.698 133.213,145.365 131.5,146.5C 131.796,144.597 132.463,142.93 133.5,141.5 Z"/></g>
<g><path style="opacity:0.776" fill="#f5f074" d="M 19.5,134.5 C 19.1818,139.032 19.5151,143.366 20.5,147.5C 20.5,148.5 20.5,149.5 20.5,150.5C 20.815,154.371 20.4816,158.038 19.5,161.5C 19.6655,157.486 19.4988,153.486 19,149.5C 18.8138,152.036 18.3138,154.369 17.5,156.5C 17.6262,148.972 18.2929,141.639 19.5,134.5 Z"/></g>
<g><path style="opacity:0.435" fill="#f6f178" d="M 60.5,145.5 C 62.5323,146.048 63.5323,147.381 63.5,149.5C 61.7376,148.738 60.7376,147.404 60.5,145.5 Z"/></g>
<g><path style="opacity:0.604" fill="#f6f380" d="M 65.5,146.5 C 68.2427,148.239 70.2427,150.573 71.5,153.5C 69.1667,151.833 67.1667,149.833 65.5,147.5C 65.5,147.167 65.5,146.833 65.5,146.5 Z"/></g>
<g><path style="opacity:0.188" fill="#f8f183" d="M 135.5,144.5 C 135.741,146.898 135.074,148.898 133.5,150.5C 133.595,148.214 134.262,146.214 135.5,144.5 Z"/></g>
<g><path style="opacity:1" fill="#f2e92d" d="M 65.5,147.5 C 67.1667,149.833 69.1667,151.833 71.5,153.5C 72.8333,153.5 73.5,154.167 73.5,155.5C 74.5,156.833 75.5,158.167 76.5,159.5C 75.8333,159.5 75.5,159.833 75.5,160.5C 75.1667,160.5 74.8333,160.5 74.5,160.5C 72.7607,157.757 70.4274,155.757 67.5,154.5C 67.573,152.973 66.9063,151.973 65.5,151.5C 64.6457,149.965 64.6457,148.632 65.5,147.5 Z"/></g>
<g><path style="opacity:0.208" fill="#fbf7a0" d="M 64.5,151.5 C 64.8333,151.5 65.1667,151.5 65.5,151.5C 66.9063,151.973 67.573,152.973 67.5,154.5C 66.1667,153.833 65.1667,152.833 64.5,151.5 Z"/></g>
<g><path style="opacity:0.863" fill="#f7f17a" d="M 131.5,147.5 C 131.643,149.262 131.309,150.929 130.5,152.5C 130.957,153.298 131.624,153.631 132.5,153.5C 132.34,155.153 131.674,156.486 130.5,157.5C 130.715,155.821 130.048,154.821 128.5,154.5C 128.935,151.843 129.935,149.509 131.5,147.5 Z"/></g>
<g><path style="opacity:0.369" fill="#f8f588" d="M 67.5,154.5 C 70.4274,155.757 72.7607,157.757 74.5,160.5C 71.5726,159.243 69.2393,157.243 67.5,154.5 Z"/></g>
<g><path style="opacity:0.004" fill="#faf696" d="M 73.5,155.5 C 75.7488,156.08 77.4154,157.413 78.5,159.5C 77.8333,159.5 77.1667,159.5 76.5,159.5C 75.5,158.167 74.5,156.833 73.5,155.5 Z"/></g>
<g><path style="opacity:0.976" fill="#f3eb4b" d="M 128.5,154.5 C 130.048,154.821 130.715,155.821 130.5,157.5C 130.068,158.71 129.401,159.71 128.5,160.5C 128.082,159.778 127.416,159.278 126.5,159C 127.582,157.67 128.249,156.17 128.5,154.5 Z"/></g>
<g><path style="opacity:0.718" fill="#eeea47" d="M 19.5,161.5 C 19.5,161.833 19.5,162.167 19.5,162.5C 17.6921,161.082 17.0254,159.082 17.5,156.5C 18.3138,154.369 18.8138,152.036 19,149.5C 19.4988,153.486 19.6655,157.486 19.5,161.5 Z"/></g>
<g><path style="opacity:0.976" fill="#f6ef6b" d="M 128.5,154.5 C 128.249,156.17 127.582,157.67 126.5,159C 127.416,159.278 128.082,159.778 128.5,160.5C 127.488,161.872 126.488,163.205 125.5,164.5C 125.715,162.821 125.048,161.821 123.5,161.5C 124.934,158.953 126.6,156.619 128.5,154.5 Z"/></g>
<g><path style="opacity:0.816" fill="#f5ee69" d="M 74.5,160.5 C 74.8333,160.5 75.1667,160.5 75.5,160.5C 77.5,161.833 79.1667,163.5 80.5,165.5C 77.9108,164.581 75.9108,162.914 74.5,160.5 Z"/></g>
<g><path style="opacity:0.027" fill="#f8f7a9" d="M 17.5,156.5 C 17.0254,159.082 17.6921,161.082 19.5,162.5C 18.9924,164.233 18.159,164.566 17,163.5C 16.2042,160.961 16.3709,158.628 17.5,156.5 Z"/></g>
<g><path style="opacity:0.992" fill="#f2ea33" d="M 75.5,160.5 C 75.5,159.833 75.8333,159.5 76.5,159.5C 77.1667,159.5 77.8333,159.5 78.5,159.5C 79.5,159.833 80.1667,160.5 80.5,161.5C 81.0905,163.097 82.0905,164.431 83.5,165.5C 82.7666,166.087 81.7666,166.087 80.5,165.5C 79.1667,163.5 77.5,161.833 75.5,160.5 Z"/></g>
<g><path style="opacity:0.914" fill="#f0ea2b" d="M 123.5,161.5 C 125.048,161.821 125.715,162.821 125.5,164.5C 125.167,164.5 124.833,164.5 124.5,164.5C 123.761,164.631 123.094,164.464 122.5,164C 123.252,163.329 123.586,162.496 123.5,161.5 Z"/></g>
<g><path style="opacity:1" fill="#f6f06f" d="M 123.5,161.5 C 123.586,162.496 123.252,163.329 122.5,164C 123.094,164.464 123.761,164.631 124.5,164.5C 124.19,166.144 123.19,167.144 121.5,167.5C 121.631,166.624 121.298,165.957 120.5,165.5C 119.583,166.127 118.583,166.461 117.5,166.5C 119.46,164.844 121.46,163.177 123.5,161.5 Z"/></g>
<g><path style="opacity:1" fill="#f6ef69" d="M 80.5,161.5 C 83.6803,163.255 86.6803,165.255 89.5,167.5C 87.7741,167.185 86.1075,167.019 84.5,167C 85.3805,167.708 86.0472,168.542 86.5,169.5C 84.1475,168.66 82.1475,167.326 80.5,165.5C 81.7666,166.087 82.7666,166.087 83.5,165.5C 82.0905,164.431 81.0905,163.097 80.5,161.5 Z"/></g>
<g><path style="opacity:0.992" fill="#f3e824" d="M 89.5,167.5 C 89.1788,169.048 88.1788,169.715 86.5,169.5C 86.0472,168.542 85.3805,167.708 84.5,167C 86.1075,167.019 87.7741,167.185 89.5,167.5 Z"/></g>
<g><path style="opacity:0.992" fill="#f6ef6d" d="M 117.5,166.5 C 116.766,167.708 116.433,169.041 116.5,170.5C 116.167,171.5 115.5,172.167 114.5,172.5C 114.715,170.821 114.048,169.821 112.5,169.5C 113.899,168.11 115.566,167.11 117.5,166.5 Z"/></g>
<g><path style="opacity:0.98" fill="#f2eb4d" d="M 121.5,167.5 C 120.341,169.25 118.674,170.25 116.5,170.5C 116.433,169.041 116.766,167.708 117.5,166.5C 118.583,166.461 119.583,166.127 120.5,165.5C 121.298,165.957 121.631,166.624 121.5,167.5 Z"/></g>
<g><path style="opacity:0.941" fill="#f6f06c" d="M 89.5,167.5 C 91.403,167.796 93.0697,168.463 94.5,169.5C 92.5168,169.157 91.1834,169.824 90.5,171.5C 88.847,171.34 87.5137,170.674 86.5,169.5C 88.1788,169.715 89.1788,169.048 89.5,167.5 Z"/></g>
<g><path style="opacity:0.996" fill="#f0e827" d="M 94.5,169.5 C 94.9175,170.222 95.5842,170.722 96.5,171C 101.489,171.499 106.489,171.666 111.5,171.5C 110.791,172.404 109.791,172.737 108.5,172.5C 102.464,172.64 96.4638,172.307 90.5,171.5C 91.1834,169.824 92.5168,169.157 94.5,169.5 Z"/></g>
<g><path style="opacity:0.152" fill="#f5f17c" d="M 94.5,169.5 C 100.513,170.784 106.513,170.784 112.5,169.5C 112.167,170.167 111.833,170.833 111.5,171.5C 106.489,171.666 101.489,171.499 96.5,171C 95.5842,170.722 94.9175,170.222 94.5,169.5 Z"/></g>
<g><path style="opacity:0.875" fill="#f2ea44" d="M 112.5,169.5 C 114.048,169.821 114.715,170.821 114.5,172.5C 112.958,173.301 111.292,173.634 109.5,173.5C 108.833,173.5 108.5,173.167 108.5,172.5C 109.791,172.737 110.791,172.404 111.5,171.5C 111.833,170.833 112.167,170.167 112.5,169.5 Z"/></g>
<g><path style="opacity:0.795" fill="#f6ef65" d="M 90.5,171.5 C 96.4638,172.307 102.464,172.64 108.5,172.5C 108.5,173.167 108.833,173.5 109.5,173.5C 102.978,174.998 96.6449,174.331 90.5,171.5 Z"/></g>
</svg>
