<?xml version="1.0" standalone="no"?>
<!DOCTYPE svg PUBLIC "-//W3C//DTD SVG 20010904//EN"
 "http://www.w3.org/TR/2001/REC-SVG-20010904/DTD/svg10.dtd">
<svg version="1.0" xmlns="http://www.w3.org/2000/svg"
 width="420.000000pt" height="278.000000pt" viewBox="0 0 420.000000 278.000000"
 preserveAspectRatio="xMidYMid meet">

<g transform="translate(0.000000,278.000000) scale(0.100000,-0.100000)"
fill="#000000" stroke="none">
<path d="M2940 2619 c-13 -5 -33 -18 -43 -27 -28 -25 -67 -107 -67 -139 1 -73
99 -173 171 -173 21 0 39 5 39 10 0 6 -17 10 -38 10 -30 0 -48 8 -80 36 -80
68 -91 131 -37 212 31 47 71 67 114 57 39 -8 38 -15 -1 -40 -18 -11 -41 -35
-51 -53 -19 -32 -19 -33 2 -100 27 -90 45 -106 112 -100 74 7 94 31 94 111 0
43 -6 74 -21 102 -38 73 -133 120 -194 94z m119 -85 c27 -34 26 -57 -2 -90
-29 -33 -51 -24 -45 17 3 18 0 28 -6 26 -16 -5 -19 -42 -6 -66 15 -30 58 -27
92 6 l28 27 0 -36 c0 -45 -25 -74 -70 -82 -47 -8 -56 0 -80 69 -26 76 -25 85
9 123 36 39 53 40 80 6z"/>
<path d="M2119 2285 c-178 -29 -473 -125 -573 -187 l-50 -30 -55 26 c-99 47
-194 67 -349 73 -93 4 -164 1 -205 -7 -85 -16 -193 -63 -280 -120 -191 -125
-300 -274 -348 -476 -30 -124 -23 -311 15 -429 33 -104 86 -234 108 -265 23
-32 36 -17 16 18 -24 40 -97 238 -113 307 -19 80 -19 282 0 363 34 144 125
289 243 388 141 117 281 179 442 195 106 11 174 6 302 -21 84 -18 188 -56 188
-69 0 -3 -30 -31 -66 -61 -115 -95 -243 -271 -301 -412 -52 -129 -63 -328 -28
-486 32 -139 133 -274 248 -332 52 -26 71 -30 141 -30 100 1 164 25 264 99
171 126 239 287 230 544 -6 154 -24 216 -103 342 -52 85 -190 235 -266 291
-27 20 -49 39 -49 43 0 13 110 67 205 101 264 93 491 133 633 113 116 -17 298
-69 378 -108 72 -35 164 -107 164 -128 0 -7 -19 -23 -41 -37 -53 -32 -232
-217 -292 -302 -60 -84 -139 -250 -169 -353 -19 -66 -23 -104 -23 -215 0 -147
12 -209 55 -305 69 -155 233 -213 409 -146 152 58 279 234 327 456 20 94 22
323 4 425 -22 131 -86 283 -168 407 -41 63 -45 57 67 104 84 35 185 59 254 59
87 0 209 -57 291 -136 42 -41 121 -156 161 -234 89 -174 213 -604 238 -826 14
-116 30 -166 48 -147 15 16 -23 272 -67 444 -129 512 -278 775 -502 886 -130
65 -282 55 -467 -31 l-77 -36 -57 51 c-80 72 -191 123 -356 165 -165 42 -294
51 -426 29z m-459 -397 c220 -223 295 -436 242 -690 -35 -170 -97 -269 -224
-358 -83 -58 -146 -80 -233 -80 -150 0 -298 143 -351 340 -24 89 -24 291 0
380 46 175 188 384 349 512 l49 38 45 -32 c26 -17 81 -66 123 -110z m1318 55
c102 -159 156 -308 173 -475 21 -209 -4 -368 -82 -528 -82 -166 -170 -239
-314 -259 -74 -11 -157 5 -204 39 -43 30 -80 92 -108 177 -22 67 -26 97 -27
213 -1 163 17 238 98 405 58 118 114 198 220 312 69 75 178 163 201 163 7 0
27 -21 43 -47z"/>
<path d="M2035 590 c-44 -4 -208 -11 -365 -14 -189 -5 -306 -12 -348 -22 -35
-8 -78 -14 -97 -14 -44 0 -65 -9 -65 -27 0 -11 4 -13 13 -5 22 18 307 37 814
56 l102 4 -6 -157 c-3 -86 -9 -174 -14 -196 -6 -30 -5 -44 6 -55 10 -9 18 -11
24 -5 18 18 31 138 31 278 l0 139 53 -6 c103 -10 624 -28 707 -23 96 6 120 12
120 34 0 11 -6 13 -22 9 -50 -15 -207 -17 -488 -6 -162 6 -315 13 -340 15 -25
1 -81 0 -125 -5z"/>
</g>
</svg>
